<svg xmlns="http://www.w3.org/2000/svg">
  <!-- REGDOC line-art icons: stroke #1B2A4B, accent #00C4CC -->
  <symbol id="regdoc-car-wrench" viewBox="0 0 24 24">
    <path fill="none" stroke="currentColor" stroke-width="1.75" stroke-linecap="round" stroke-linejoin="round" d="M4 16h3l2-5h8l2 5h3v3H4v-3Z"/>
    <circle cx="8" cy="19" r="1.25" fill="currentColor"/>
    <circle cx="16" cy="19" r="1.25" fill="currentColor"/>
    <path fill="none" stroke="#00C4CC" stroke-width="1.75" stroke-linecap="round" d="M17 6v2m0 0v2m0-2h2m-2 0h-2"/>
    <path fill="none" stroke="#00C4CC" stroke-width="1.5" stroke-linecap="round" d="m18 10-2 2"/>
  </symbol>
  <symbol id="regdoc-doc-check" viewBox="0 0 24 24">
    <path fill="none" stroke="currentColor" stroke-width="1.75" stroke-linejoin="round" d="M8 4h8l4 4v12a2 2 0 0 1-2 2H8a2 2 0 0 1-2-2V6a2 2 0 0 1 2-2Z"/>
    <path fill="none" stroke="currentColor" stroke-width="1.75" stroke-linecap="round" stroke-linejoin="round" d="M12 4v4h4"/>
    <path fill="none" stroke="#00C4CC" stroke-width="2" stroke-linecap="round" stroke-linejoin="round" d="m9.5 14 2 2 4-4"/>
  </symbol>
  <symbol id="regdoc-gears" viewBox="0 0 24 24">
    <path fill="none" stroke="currentColor" stroke-width="1.6" stroke-linecap="round" stroke-linejoin="round" d="M8.5 10V8l1.2-.7.9.9 1.5-.5V6.5l1.3-.4.7 1.2h1.4l.7-1.2 1.3.4v1.2l1.5.5.9-.9 1.2.7v2l1 .6v1.4l-1 .6v2l-1.2.7-.9-.9-1.5.5v1.2l-1.3.4-.7-1.2h-1.4l-.7 1.2-1.3-.4v-1.2l-1.5-.5-.9.9-1.2-.7v-2l-1-.6v-1.4l1-.6Z"/>
    <circle cx="12" cy="12" r="2.25" fill="none" stroke="#00C4CC" stroke-width="1.5"/>
    <path fill="none" stroke="#00C4CC" stroke-width="1.4" stroke-linecap="round" d="M5 18c.8-.5 1.6-.8 2.5-.9M4 20h3"/>
  </symbol>
  <symbol id="regdoc-folder-doc" viewBox="0 0 24 24">
    <path fill="none" stroke="currentColor" stroke-width="1.75" stroke-linejoin="round" d="M4 7a2 2 0 0 1 2-2h4l2 2h8a2 2 0 0 1 2 2v9a2 2 0 0 1-2 2H6a2 2 0 0 1-2-2V7Z"/>
    <path fill="none" stroke="#00C4CC" stroke-width="1.5" stroke-linejoin="round" d="M9 12h8M9 15h6M9 18h4"/>
  </symbol>
  <symbol id="regdoc-toggle" viewBox="0 0 24 24">
    <rect x="3" y="8" width="18" height="8" rx="4" fill="none" stroke="currentColor" stroke-width="1.75"/>
    <circle cx="15" cy="12" r="2.5" fill="#00C4CC"/>
  </symbol>
</svg>
