<svg width="240" height="auto" viewBox="0 0 240 80" fill="none" xmlns="http://www.w3.org/2000/svg">
  <!-- GEAR (Background, Cyan) -->
  <g transform="translate(70, 0) scale(2.5)">
    <path d="M26.2,16.2 l2.7-1.3 c0.2-0.1,0.3-0.4,0.3-0.6 l-0.8-2.6 c-0.1-0.2-0.3-0.4-0.6-0.3 l-2.6,1.4 c-0.8-0.6-1.7-1-2.7-1.3 l-0.4-2.9 c0-0.2-0.2-0.4-0.5-0.4 h-2.8 c-0.2,0-0.4,0.2-0.5,0.4 l-0.4,2.9 c-1,0.3-1.9,0.7-2.7,1.3 l-2.6-1.4 c-0.2-0.1-0.5,0-0.6,0.3 l-0.8,2.6 c-0.1,0.2,0,0.5,0.3,0.6 l2.7,1.3 c-0.1,0.8-0.1,1.7,0,2.5 l-2.7,1.3 c-0.2,0.1-0.3,0.4-0.3,0.6 l0.8,2.6 c0.1,0.2,0.3,0.4,0.6,0.3 l2.6-1.4 c0.8,0.6,1.7,1,2.7,1.3 l0.4,2.9 c0,0.2,0.2,0.4,0.5,0.4 h2.8 c0.2,0,0.4-0.2,0.5-0.4 l0.4-2.9 c1-0.3,1.9-0.7,2.7-1.3 l2.6,1.4 c0.2,0.1,0.5,0,0.6-0.3 l0.8-2.6 c0.1-0.2,0-0.5-0.3-0.6 l-2.7-1.3 C26.3,17.9,26.3,17,26.2,16.2z M15,22 c-3.3,0-6-2.7-6-6 s2.7-6,6-6 s6,2.7,6,6 S18.3,22,15,22z" fill="#00C4CC" opacity="0.9" />
  </g>

  <!-- DOCUMENT WITH CHECKMARK (Foreground Right, Cyan/White/Navy) -->
  <g transform="translate(130, 8) scale(2.2)">
    <!-- Document Body -->
    <path d="M20,0 H5 C3.3,0,2,1.3,2,3 v24 c0,1.7,1.3,3,3,3 h16 c1.7,0,3-1.3,3-3 V6 L20,0z" fill="#00C4CC"/>
    <!-- Document Fold -->
    <path d="M20,6 h-4 c-1.1,0-2-0.9-2-2 V0 L20,6z" fill="#008080"/>
    <!-- Checkmark -->
    <path d="M7,15 l3.5,3.5 l6.5-7.5" fill="none" stroke="#FFFFFF" stroke-width="3" stroke-linecap="round" stroke-linejoin="round"/>
  </g>

  <!-- CAR SILHOUETTE (Foreground Left, Navy) -->
  <g transform="translate(0, 15) scale(2.0)">
    <path d="M29.5,10 c-2,0-4.3,0.8-5.8,2.2 l-3.1,3.8 H9.5 c-1.5,0-3,0.7-4,1.8 L3.1,20.4 C2.4,21.2,2,22.2,2,23.3 V25 c0,1.1,0.9,2,2,2 h0.2 C4.9,29.3,7.2,31,10,31 s5.1-1.7,5.8-4 h9.4 c0.7,2.3,3,4,5.8,4 s5.1-1.7,5.8-4 h1.2 c1.1,0,2-0.9,2-2 v-1 C40,16.5,35.3,10,29.5,10z M10,29 c-1.7,0-3-1.3-3-3 s1.3-3,3-3 s3,1.3,3,3 S11.7,29,10,29z M31,29 c-1.7,0-3-1.3-3-3 s1.3-3,3-3 s3,1.3,3,3 S32.7,29,31,29z M13.7,16 h6.5 l2.3-2.8 C23.6,11.9,25.2,11.5,27,11.5 c2.4,0,4.8,1.6,6.3,4.5 H13.7z" fill="#1B2A4B"/>
  </g>
</svg>
